<?xml version="1.0" encoding="UTF-8"?>
<!-- Created with Inkscape (http://www.inkscape.org/) -->
<svg width="72.706mm" height="65.998mm" version="1.1" viewBox="0 0 72.706 65.998" xmlns="http://www.w3.org/2000/svg">
 <g transform="translate(-71.323 -100.21)">
  <g transform="translate(61.959 -116.59)" stroke-linecap="round" stroke-linejoin="round">
   <g transform="matrix(-.88358 0 0 -.88356 141.81 381.39)" stroke-width=".56588">
    <circle cx="113.63" cy="133.05" r="3.3934" fill="none" stroke="#000"/>
    <path d="m113.99 133.41v2.1187h-0.72767v-2.1187h-2.0989v-0.72272h2.0989v-2.1187h0.72767v2.1187h2.0989v0.72272z" aria-label="+"/>
   </g>
   <g transform="translate(-83.416 112.92)" stroke-width=".5">
    <circle cx="113.63" cy="133.05" r="3.3934" fill="none" stroke="#000"/>
    <path d="m113.99 133.41v2.1187h-0.72767v-2.1187h-2.0989v-0.72272h2.0989v-2.1187h0.72767v2.1187h2.0989v0.72272z" aria-label="+"/>
    <circle cx="147.27" cy="133.05" r="3.3934" fill="none" stroke="#000"/>
    <path d="m145 133.45v-0.79203h4.5451v0.79203z" aria-label="-"/>
    <circle transform="scale(-1)" cx="-147.27" cy="-166.23" r="3.3934" fill="none" stroke="#000"/>
    <path d="m146.91 165.87v-2.1187h0.72767v2.1187h2.0989v0.72272h-2.0989v2.1187h-0.72767v-2.1187h-2.0989v-0.72272z" aria-label="+"/>
    <circle transform="scale(-1)" cx="-113.63" cy="-166.23" r="3.3934" fill="none" stroke="#000"/>
    <path d="m115.9 165.84v0.79203h-4.5451v-0.79203z" aria-label="-"/>
   </g>
   <g stroke-width=".56588">
    <g transform="matrix(-.88358 0 0 -.88356 200.46 381.97)">
     <circle transform="scale(-1)" cx="-147.27" cy="-166.23" r="3.3934" fill="none" stroke="#000"/>
     <path d="m146.91 165.87v-2.1187h0.72767v2.1187h2.0989v0.72272h-2.0989v2.1187h-0.72767v-2.1187h-2.0989v-0.72272z" aria-label="+"/>
    </g>
    <g transform="matrix(-.88358 0 0 -.88356 141.43 381.97)">
     <circle transform="scale(-1)" cx="-113.63" cy="-166.23" r="3.3934" fill="none" stroke="#000"/>
     <path d="m115.9 165.84v0.79203h-4.5451v-0.79203z" aria-label="-"/>
    </g>
    <g transform="matrix(-.88358 0 0 -.88356 142.74 381.97)">
     <circle transform="scale(-1)" cx="-147.27" cy="-166.23" r="3.3934" fill="none" stroke="#000"/>
     <path d="m146.91 165.87v-2.1187h0.72767v2.1187h2.0989v0.72272h-2.0989v2.1187h-0.72767v-2.1187h-2.0989v-0.72272z" aria-label="+"/>
    </g>
   </g>
   <g stroke-width=".66189">
    <g transform="matrix(-.75543 0 0 -.7554 161.33 351.77)">
     <circle cx="147.27" cy="133.05" r="3.3934" fill="none" stroke="#000"/>
     <path d="m145 133.45v-0.79203h4.5451v0.79203z" aria-label="-"/>
    </g>
    <g transform="matrix(-.75543 0 0 -.7554 161.08 352.33)">
     <circle transform="scale(-1)" cx="-147.27" cy="-166.23" r="3.3934" fill="none" stroke="#000"/>
     <path d="m146.91 165.87v-2.1187h0.72767v2.1187h2.0989v0.72272h-2.0989v2.1187h-0.72767v-2.1187h-2.0989v-0.72272z" aria-label="+"/>
    </g>
    <g transform="matrix(-.75543 0 0 -.7554 110.78 352.33)">
     <circle transform="scale(-1)" cx="-113.63" cy="-166.23" r="3.3934" fill="none" stroke="#000"/>
     <path d="m115.9 165.84v0.79203h-4.5451v-0.79203z" aria-label="-"/>
    </g>
    <g transform="matrix(-.75543 0 0 -.7554 160.9 351.77)">
     <circle cx="113.63" cy="133.05" r="3.3934" fill="none" stroke="#000"/>
     <path d="m113.99 133.41v2.1187h-0.72767v-2.1187h-2.0989v-0.72272h2.0989v-2.1187h0.72767v2.1187h2.0989v0.72272z" aria-label="+"/>
    </g>
    <g transform="matrix(-.75543 0 0 -.7554 161.08 352.33)">
     <circle transform="scale(-1)" cx="-113.63" cy="-166.23" r="3.3934" fill="none" stroke="#000"/>
     <path d="m115.9 165.84v0.79203h-4.5451v-0.79203z" aria-label="-"/>
    </g>
   </g>
   <g stroke="#000" stroke-width=".5">
    <path d="m34.963 279.15h23.527"/>
    <path d="m34.963 245.97h23.527"/>
    <path d="m30.213 250.8v23.527"/>
    <path d="m63.856 250.8v23.527"/>
   </g>
   <g transform="matrix(-.88358 0 0 -.88356 200.46 381.39)" stroke-width=".56588">
    <circle cx="147.27" cy="133.05" r="3.3934" fill="none" stroke="#000"/>
    <path d="m145 133.45v-0.79203h4.5451v0.79203z" aria-label="-"/>
   </g>
   <g stroke-width=".747">
    <g transform="matrix(.66718 0 0 .67151 3.7457 129.98)">
     <circle cx="113.63" cy="133.05" r="3.3934" fill="none" stroke="#000"/>
     <path d="m113.99 133.41v2.1187h-0.72767v-2.1187h-2.0989v-0.72272h2.0989v-2.1187h0.72767v2.1187h2.0989v0.72272z" aria-label="+"/>
    </g>
    <g transform="matrix(.66718 0 0 .67151 3.5916 129.48)">
     <circle transform="scale(-1)" cx="-113.63" cy="-166.23" r="3.3934" fill="none" stroke="#000"/>
     <path d="m115.9 165.84v0.79203h-4.5451v-0.79203z" aria-label="-"/>
    </g>
    <g transform="matrix(-.66718 0 0 -.67151 133.45 330.45)">
     <circle cx="113.63" cy="133.05" r="3.3934" fill="none" stroke="#000"/>
     <path d="m113.99 133.41v2.1187h-0.72767v-2.1187h-2.0989v-0.72272h2.0989v-2.1187h0.72767v2.1187h2.0989v0.72272z" aria-label="+"/>
    </g>
    <g transform="matrix(-.66718 0 0 -.67151 133.6 330.95)">
     <circle transform="scale(-1)" cx="-113.63" cy="-166.23" r="3.3934" fill="none" stroke="#000"/>
     <path d="m115.9 165.84v0.79203h-4.5451v-0.79203z" aria-label="-"/>
    </g>
    <g transform="matrix(.66718 0 0 .67151 -39.943 129.98)">
     <circle cx="113.63" cy="133.05" r="3.3934" fill="none" stroke="#000"/>
     <path d="m113.99 133.41v2.1187h-0.72767v-2.1187h-2.0989v-0.72272h2.0989v-2.1187h0.72767v2.1187h2.0989v0.72272z" aria-label="+"/>
    </g>
   </g>
   <g stroke="#000" stroke-width=".5">
    <path d="m45.755 235.1h19.859"/>
    <path d="m53.941 226.76h17.179"/>
    <path d="m61.281 219.39h14.784"/>
    <path d="m70.336 239.52v20.394"/>
    <path d="m75.057 230.5v17.024"/>
    <path d="m79.557 222.71v15.017"/>
    <path d="m16.933 235.1h19.386"/>
    <path d="m28.816 226.76h16.896"/>
    <path d="m39.244 219.39h15.049"/>
    <path d="m12.612 239.34v20.25"/>
   </g>
   <g transform="matrix(-.88358 0 0 -.88356 142.74 381.39)" stroke-width=".56588">
    <circle cx="147.27" cy="133.05" r="3.3934" fill="none" stroke="#000"/>
    <path d="m145 133.45v-0.79203h4.5451v0.79203z" aria-label="-"/>
   </g>
   <g stroke="#000">
    <g stroke-width=".5">
     <path d="m65.514 275.06 2.9808-7.3496"/>
     <path d="m71.656 259.92 2.1467-5.293"/>
     <path d="m76.518 247.93 1.5689-3.8685"/>
     <path d="m66.018 242.26 2.203-3.7758"/>
     <path d="m72.059 231.91 1.4109-2.4181"/>
     <path d="m76.732 223.9 1.2658-2.1695"/>
     <path d="m33.426 242.84 4.7682-4.6375"/>
     <path d="m44.117 232.45 3.2403-3.1515"/>
     <path d="m52.448 224.34 3.0038-2.9215"/>
     <path d="m16.025 232.78 5.9437-4.0364"/>
     <path d="m27.793 224.79 5.4417-3.6955"/>
    </g>
    <g stroke-dasharray="2, 2" stroke-width=".5">
     <path d="m32.943 275.33 5.9621-8.3421"/>
     <path d="m43.686 260.3 4.342-6.0753"/>
     <path d="m52.122 248.5 3.5244-4.9313"/>
    </g>
    <path d="m45.948 263.83h20.181" stroke-dasharray="1.5, 1.6" stroke-width=".5"/>
    <path d="m53.984 251.26h17.175" stroke-dasharray="1.75, 1.75" stroke-width=".5"/>
    <g stroke-dasharray="2, 2" stroke-width=".5">
     <path d="m41.412 239.77v19.391"/>
     <path d="m50.033 230.72v17.103"/>
     <path d="m57.635 222.64v15.937"/>
    </g>
    <path d="m17.024 263.83h11.776" stroke-width=".5"/>
    <path d="m32.029 263.83h5.3286" stroke-dasharray="1.5, 1.6" stroke-width=".5"/>
   </g>
  </g>
 </g>
</svg>
